<svg width="155" height="27" viewBox="0 0 155 27" fill="none" xmlns="http://www.w3.org/2000/svg">
<path d="M10.4583 26.36C7.3143 26.36 4.8063 25.592 2.9343 24.056C1.0863 22.496 0.162297 20.036 0.162297 16.676V16.424C0.210297 13.328 1.1583 10.976 3.0063 9.368C4.8783 7.736 7.3503 6.92 10.4223 6.92C12.7743 6.92 14.7063 7.376 16.2183 8.288C17.7303 9.176 18.8463 10.364 19.5663 11.852C20.3103 13.316 20.6823 14.936 20.6823 16.712V17.792C20.6823 18.056 20.5863 18.284 20.3943 18.476C20.2023 18.668 19.9743 18.764 19.7103 18.764H8.9823V18.944C8.9823 19.664 9.0783 20.216 9.2703 20.6C9.4863 20.96 9.8583 21.14 10.3863 21.14C10.6023 21.14 10.7823 21.08 10.9263 20.96C11.0703 20.84 11.2383 20.684 11.4303 20.492C11.6463 20.276 11.8263 20.144 11.9703 20.096C12.1143 20.024 12.3303 19.988 12.6183 19.988H19.4223C19.6623 19.988 19.8543 20.06 19.9983 20.204C20.1663 20.348 20.2383 20.54 20.2143 20.78C20.1903 21.236 19.9743 21.788 19.5663 22.436C19.1823 23.06 18.5943 23.672 17.8023 24.272C17.0103 24.872 16.0023 25.376 14.7783 25.784C13.5543 26.168 12.1143 26.36 10.4583 26.36ZM5.2743 9.8C5.0583 9.8 4.9263 9.86 4.8783 9.98C4.8303 10.076 4.7703 10.232 4.6983 10.448C4.6503 10.568 4.6503 10.664 4.6983 10.736C4.7703 10.808 4.8663 10.88 4.9863 10.952C5.1063 11.072 5.2023 11.168 5.2743 11.24C5.3703 11.312 5.4903 11.3 5.6343 11.204C5.8023 11.084 5.9103 10.976 5.9583 10.88C6.0063 10.784 5.9943 10.628 5.9223 10.412C5.8743 10.196 5.8023 10.04 5.7063 9.944C5.6343 9.848 5.4903 9.8 5.2743 9.8ZM8.9823 14.264H10.0623C10.0383 14.216 10.0143 14.156 9.9903 14.084C9.8703 13.652 9.7863 13.28 9.7383 12.968C9.6903 12.656 9.7023 12.368 9.7743 12.104C9.9423 12.008 10.1583 11.96 10.4223 11.96C11.3823 11.96 11.8623 12.716 11.8623 14.228L10.0623 14.264C10.2543 14.936 10.3863 15.536 10.4583 16.064C10.5543 16.592 10.7343 17.012 10.9983 17.324C11.2863 17.612 11.7903 17.768 12.5103 17.792C13.3983 17.816 14.1063 17.756 14.6343 17.612C15.1863 17.444 15.6303 17.144 15.9663 16.712C16.3023 16.256 16.6143 15.608 16.9023 14.768C17.1423 14.048 17.1663 13.508 16.9743 13.148C16.7823 12.764 16.4343 12.428 15.9303 12.14C15.4503 11.852 14.9103 11.48 14.3103 11.024C13.6143 10.496 13.0383 10.22 12.5823 10.196C12.1503 10.148 11.5743 10.364 10.8543 10.844C10.2543 11.276 9.8943 11.696 9.7743 12.104C9.2463 12.392 8.9823 13.112 8.9823 14.264ZM3.7983 11.96C3.6543 11.912 3.5343 11.912 3.4383 11.96C3.3663 12.008 3.2823 12.092 3.1863 12.212C3.0423 12.356 2.9103 12.476 2.7903 12.572C2.6943 12.644 2.6943 12.776 2.7903 12.968C2.9103 13.16 3.0303 13.232 3.1503 13.184C3.2703 13.112 3.4383 13.052 3.6543 13.004C3.8703 12.956 3.9903 12.812 4.0143 12.572C4.0383 12.428 4.0383 12.308 4.0143 12.212C4.0143 12.116 3.9423 12.032 3.7983 11.96ZM6.6063 12.356C6.3183 12.212 6.0903 12.152 5.9223 12.176C5.7783 12.2 5.6103 12.32 5.4183 12.536C5.2023 12.776 5.0823 12.98 5.0583 13.148C5.0343 13.292 5.1063 13.496 5.2743 13.76C5.3943 14 5.5263 14.108 5.6703 14.084C5.8383 14.036 6.0543 13.988 6.3183 13.94C6.5583 13.892 6.7503 13.856 6.8943 13.832C7.0383 13.784 7.1223 13.628 7.1463 13.364C7.1703 13.076 7.1463 12.872 7.0743 12.752C7.0263 12.608 6.8703 12.476 6.6063 12.356ZM5.0583 15.38C4.9383 15.212 4.8183 15.128 4.6983 15.128C4.5783 15.128 4.4223 15.164 4.2303 15.236C4.0143 15.308 3.8703 15.392 3.7983 15.488C3.7263 15.56 3.6903 15.704 3.6903 15.92C3.6903 16.184 3.7023 16.388 3.7263 16.532C3.7743 16.676 3.9183 16.784 4.1583 16.856C4.4223 16.928 4.6143 16.928 4.7343 16.856C4.8543 16.76 4.9983 16.592 5.1663 16.352C5.3103 16.16 5.3703 16.004 5.3463 15.884C5.3223 15.74 5.2263 15.572 5.0583 15.38ZM6.8943 15.74C6.7023 15.716 6.5823 15.752 6.5343 15.848C6.4863 15.944 6.4143 16.088 6.3183 16.28C6.2463 16.472 6.1863 16.628 6.1383 16.748C6.0903 16.844 6.1383 16.952 6.2823 17.072C6.4503 17.24 6.5943 17.324 6.7143 17.324C6.8343 17.324 7.0023 17.264 7.2183 17.144C7.4103 17.024 7.5543 16.916 7.6503 16.82C7.7463 16.724 7.7583 16.556 7.6863 16.316C7.6383 16.076 7.5543 15.932 7.4343 15.884C7.3143 15.812 7.1343 15.764 6.8943 15.74ZM3.6183 17.144C3.3303 17.072 3.1143 17.072 2.9703 17.144C2.8503 17.216 2.7063 17.372 2.5383 17.612C2.4183 17.828 2.3943 17.996 2.4663 18.116C2.5623 18.212 2.6823 18.356 2.8263 18.548C2.9463 18.716 3.0543 18.824 3.1503 18.872C3.2463 18.896 3.3783 18.872 3.5463 18.8C3.8583 18.68 4.0143 18.452 4.0143 18.116C4.0143 17.852 4.0143 17.648 4.0143 17.504C4.0143 17.336 3.8823 17.216 3.6183 17.144ZM4.8423 20.132C4.8423 19.964 4.8423 19.832 4.8423 19.736C4.8663 19.64 4.8063 19.58 4.6623 19.556C4.4943 19.508 4.3743 19.52 4.3023 19.592C4.2543 19.64 4.1823 19.736 4.0863 19.88C4.0143 19.976 3.9903 20.06 4.0143 20.132C4.0623 20.18 4.1223 20.252 4.1943 20.348C4.2903 20.468 4.3623 20.576 4.4103 20.672C4.4583 20.744 4.5543 20.756 4.6983 20.708C4.8423 20.66 4.9023 20.588 4.8783 20.492C4.8543 20.396 4.8423 20.276 4.8423 20.132ZM7.2903 20.096C7.0743 19.88 6.8223 19.844 6.5343 19.988C6.3423 20.108 6.1983 20.204 6.1023 20.276C6.0303 20.348 6.0063 20.492 6.0303 20.708C6.0783 20.924 6.1623 21.044 6.2823 21.068C6.4023 21.092 6.5703 21.116 6.7863 21.14C7.0023 21.164 7.1703 21.188 7.2903 21.212C7.4343 21.212 7.5543 21.116 7.6503 20.924C7.7463 20.732 7.7463 20.588 7.6503 20.492C7.5783 20.372 7.4583 20.24 7.2903 20.096ZM14.0583 21.068C14.0103 20.948 13.9503 20.876 13.8783 20.852C13.8303 20.828 13.7463 20.816 13.6263 20.816C13.4103 20.816 13.2783 20.888 13.2303 21.032C13.1583 21.224 13.1943 21.38 13.3383 21.5C13.4583 21.572 13.5423 21.632 13.5903 21.68C13.6623 21.728 13.7583 21.716 13.8783 21.644C13.9983 21.548 14.0583 21.464 14.0583 21.392C14.0823 21.32 14.0823 21.212 14.0583 21.068ZM12.4743 22.688C12.4503 22.4 12.4263 22.172 12.4023 22.004C12.4023 21.836 12.2583 21.716 11.9703 21.644C11.6103 21.548 11.3343 21.512 11.1423 21.536C10.9503 21.536 10.7583 21.692 10.5663 22.004C10.3743 22.292 10.3503 22.508 10.4943 22.652C10.6383 22.796 10.8063 23 10.9983 23.264C11.1663 23.48 11.3103 23.612 11.4303 23.66C11.5743 23.708 11.7663 23.684 12.0063 23.588C12.2463 23.492 12.3903 23.384 12.4383 23.264C12.4863 23.12 12.4983 22.928 12.4743 22.688ZM16.6143 22.436C16.4943 22.148 16.3863 21.932 16.2903 21.788C16.2183 21.62 16.0143 21.548 15.6783 21.572C15.2943 21.62 15.0063 21.692 14.8143 21.788C14.6223 21.884 14.4903 22.124 14.4183 22.508C14.3463 22.868 14.3823 23.12 14.5263 23.264C14.6943 23.408 14.9463 23.576 15.2823 23.768C15.5943 23.96 15.8463 24.092 16.0383 24.164C16.2543 24.236 16.5063 24.14 16.7943 23.876C17.0823 23.636 17.1543 23.42 17.0103 23.228C16.8903 23.036 16.7583 22.772 16.6143 22.436ZM8.1183 22.364L7.7583 22.148L7.5063 22.508L7.7583 22.76L8.1183 22.796V22.364ZM6.8223 23.12C6.6543 23.096 6.5343 23.12 6.4623 23.192C6.4143 23.24 6.3543 23.336 6.2823 23.48C6.1863 23.624 6.1263 23.744 6.1023 23.84C6.0783 23.936 6.1263 24.044 6.2463 24.164C6.4143 24.308 6.5463 24.416 6.6423 24.488C6.7383 24.536 6.8823 24.512 7.0743 24.416C7.2423 24.32 7.3023 24.212 7.2543 24.092C7.2303 23.972 7.2063 23.816 7.1823 23.624C7.1583 23.48 7.1223 23.372 7.0743 23.3C7.0503 23.204 6.9663 23.144 6.8223 23.12ZM30.368 26.36C28.976 26.36 27.716 26.084 26.588 25.532C25.484 24.98 24.584 24.092 23.888 22.868C23.216 21.644 22.832 20.036 22.736 18.044C22.712 17.492 22.7 17.012 22.7 16.604C22.7 16.196 22.712 15.728 22.736 15.2C22.808 13.304 23.18 11.756 23.852 10.556C24.548 9.332 25.46 8.42 26.588 7.82C27.716 7.22 28.976 6.92 30.368 6.92C31.376 6.92 32.276 7.076 33.068 7.388C33.884 7.676 34.58 8.084 35.156 8.612V1.412C35.156 1.148 35.252 0.92 35.444 0.727999C35.636 0.535999 35.864 0.439999 36.128 0.439999H42.788C43.052 0.439999 43.28 0.535999 43.472 0.727999C43.664 0.92 43.76 1.148 43.76 1.412V25.028C43.76 25.292 43.664 25.52 43.472 25.712C43.28 25.904 43.052 26 42.788 26H36.668C36.404 26 36.176 25.904 35.984 25.712C35.792 25.52 35.696 25.292 35.696 25.028V24.2C35.12 24.848 34.4 25.376 33.536 25.784C32.672 26.168 31.616 26.36 30.368 26.36ZM41.096 1.268C40.856 1.172 40.664 1.148 40.52 1.196C40.4 1.244 40.256 1.352 40.088 1.52C39.944 1.688 39.908 1.832 39.98 1.952C40.052 2.048 40.136 2.18 40.232 2.348C40.376 2.612 40.568 2.72 40.808 2.672C41 2.624 41.132 2.576 41.204 2.528C41.3 2.48 41.36 2.36 41.384 2.168C41.408 1.952 41.42 1.784 41.42 1.664C41.42 1.52 41.312 1.388 41.096 1.268ZM39.98 4.724C39.596 4.508 39.284 4.388 39.044 4.364C38.828 4.34 38.564 4.472 38.252 4.76C37.892 5.048 37.688 5.312 37.64 5.552C37.592 5.768 37.652 6.092 37.82 6.524C37.988 6.908 38.18 7.124 38.396 7.172C38.636 7.22 38.96 7.232 39.368 7.208C39.824 7.16 40.172 7.112 40.412 7.064C40.676 6.992 40.856 6.74 40.952 6.308C41.048 5.852 41 5.54 40.808 5.372C40.64 5.18 40.364 4.964 39.98 4.724ZM36.596 6.164L36.308 6.236L36.272 6.596L36.596 6.668L36.812 6.416L36.596 6.164ZM39.476 8.504C39.26 8.336 39.08 8.252 38.936 8.252C38.792 8.252 38.612 8.324 38.396 8.468C38.18 8.588 38.06 8.72 38.036 8.864C38.036 8.984 38.072 9.164 38.144 9.404C38.192 9.644 38.252 9.824 38.324 9.944C38.396 10.064 38.552 10.136 38.792 10.16C39.08 10.184 39.284 10.16 39.404 10.088C39.524 9.992 39.632 9.824 39.728 9.584C39.824 9.32 39.848 9.116 39.8 8.972C39.776 8.828 39.668 8.672 39.476 8.504ZM31.412 8.9C31.196 8.804 31.028 8.804 30.908 8.9C30.812 8.972 30.68 9.104 30.512 9.296C30.272 9.56 30.248 9.836 30.44 10.124C30.584 10.388 30.692 10.604 30.764 10.772C30.836 10.94 31.016 10.988 31.304 10.916C31.64 10.844 31.856 10.736 31.952 10.592C32.048 10.424 32.108 10.184 32.132 9.872C32.156 9.56 32.108 9.356 31.988 9.26C31.892 9.14 31.7 9.02 31.412 8.9ZM33.392 11.132C33.368 11.012 33.332 10.916 33.284 10.844C33.26 10.772 33.188 10.736 33.068 10.736C32.924 10.736 32.84 10.772 32.816 10.844C32.792 10.916 32.756 11.012 32.708 11.132C32.684 11.276 32.66 11.384 32.636 11.456C32.612 11.528 32.648 11.6 32.744 11.672C32.984 11.84 33.212 11.852 33.428 11.708C33.524 11.612 33.548 11.528 33.5 11.456C33.476 11.36 33.44 11.252 33.392 11.132ZM28.064 11.888C28.016 11.504 27.908 11.252 27.74 11.132C27.596 10.988 27.32 10.88 26.912 10.808C26.528 10.76 26.252 10.796 26.084 10.916C25.94 11.012 25.784 11.24 25.616 11.6C25.472 11.888 25.46 12.104 25.58 12.248C25.724 12.368 25.904 12.536 26.12 12.752C26.408 13.016 26.612 13.244 26.732 13.436C26.876 13.628 27.116 13.64 27.452 13.472C27.812 13.28 28.016 13.076 28.064 12.86C28.136 12.644 28.136 12.32 28.064 11.888ZM40.88 12.752C40.304 12.344 39.836 12.128 39.476 12.104C39.116 12.056 38.648 12.236 38.072 12.644C37.472 13.076 37.088 13.472 36.92 13.832C36.776 14.192 36.824 14.72 37.064 15.416C37.28 16.136 37.556 16.604 37.892 16.82C38.228 17.012 38.768 17.108 39.512 17.108C40.304 17.108 40.88 17.024 41.24 16.856C41.624 16.688 41.936 16.232 42.176 15.488C42.416 14.768 42.404 14.252 42.14 13.94C41.9 13.604 41.48 13.208 40.88 12.752ZM33.356 19.916C34.028 19.916 34.484 19.736 34.724 19.376C34.988 18.992 35.132 18.476 35.156 17.828C35.204 17.276 35.228 16.832 35.228 16.496C35.228 16.136 35.204 15.692 35.156 15.164C35.132 14.588 34.976 14.144 34.688 13.832C34.424 13.52 33.98 13.364 33.356 13.364C32.684 13.364 32.228 13.556 31.988 13.94C31.772 14.3 31.628 14.804 31.556 15.452C31.484 16.244 31.484 17.036 31.556 17.828C31.628 18.476 31.772 18.992 31.988 19.376C32.228 19.736 32.684 19.916 33.356 19.916ZM30.332 14.516C30.164 14.324 30.008 14.252 29.864 14.3C29.744 14.324 29.564 14.372 29.324 14.444C29.06 14.54 28.856 14.624 28.712 14.696C28.568 14.744 28.508 14.912 28.532 15.2C28.556 15.488 28.616 15.692 28.712 15.812C28.832 15.908 29.036 15.992 29.324 16.064C29.588 16.136 29.768 16.124 29.864 16.028C29.984 15.932 30.104 15.776 30.224 15.56C30.368 15.344 30.464 15.164 30.512 15.02C30.56 14.876 30.5 14.708 30.332 14.516ZM25.472 17.612C25.448 17.42 25.364 17.3 25.22 17.252C25.124 17.228 25.052 17.24 25.004 17.288C24.956 17.336 24.908 17.408 24.86 17.504C24.788 17.6 24.728 17.684 24.68 17.756C24.632 17.804 24.644 17.876 24.716 17.972C24.812 18.068 24.896 18.116 24.968 18.116C25.04 18.092 25.136 18.056 25.256 18.008C25.424 17.96 25.496 17.828 25.472 17.612ZM30.44 18.44C30.416 18.224 30.356 18.08 30.26 18.008C30.164 17.936 30.008 17.876 29.792 17.828C29.528 17.78 29.324 17.756 29.18 17.756C29.036 17.732 28.904 17.828 28.784 18.044C28.616 18.308 28.532 18.524 28.532 18.692C28.556 18.86 28.676 19.052 28.892 19.268C29.084 19.46 29.252 19.556 29.396 19.556C29.54 19.532 29.744 19.46 30.008 19.34C30.224 19.22 30.356 19.1 30.404 18.98C30.452 18.86 30.464 18.68 30.44 18.44ZM41.456 18.152C41.144 17.984 40.892 17.936 40.7 18.008C40.508 18.056 40.292 18.212 40.052 18.476C39.788 18.716 39.632 18.932 39.584 19.124C39.536 19.316 39.596 19.568 39.764 19.88C39.908 20.168 40.064 20.3 40.232 20.276C40.424 20.228 40.688 20.18 41.024 20.132C41.264 20.084 41.444 20.024 41.564 19.952C41.684 19.88 41.768 19.712 41.816 19.448C41.864 19.112 41.888 18.848 41.888 18.656C41.912 18.464 41.768 18.296 41.456 18.152ZM26.048 18.908C25.928 18.764 25.82 18.728 25.724 18.8C25.628 18.872 25.508 18.944 25.364 19.016C25.22 19.064 25.1 19.112 25.004 19.16C24.932 19.208 24.908 19.304 24.932 19.448C24.956 19.616 24.992 19.748 25.04 19.844C25.088 19.916 25.196 19.976 25.364 20.024C25.556 20.048 25.688 20.036 25.76 19.988C25.832 19.94 25.916 19.832 26.012 19.664C26.108 19.496 26.168 19.364 26.192 19.268C26.216 19.172 26.168 19.052 26.048 18.908ZM36.848 20.384L36.596 20.24L36.308 20.384L36.38 20.744L36.74 20.636L36.848 20.384ZM29.108 21.284C28.652 20.924 28.28 20.66 27.992 20.492C27.704 20.3 27.32 20.372 26.84 20.708C26.528 20.9 26.36 21.104 26.336 21.32C26.312 21.536 26.36 21.776 26.48 22.04C26.6 22.28 26.708 22.58 26.804 22.94C26.924 23.324 26.996 23.672 27.02 23.984C27.044 24.272 27.116 24.512 27.236 24.704C27.356 24.872 27.62 24.968 28.028 24.992C28.412 25.016 28.664 24.944 28.784 24.776C28.904 24.584 28.976 24.332 29 24.02C29.048 23.708 29.144 23.372 29.288 23.012C29.432 22.604 29.528 22.28 29.576 22.04C29.624 21.8 29.468 21.548 29.108 21.284ZM42.572 23.012C42.38 22.628 42.212 22.352 42.068 22.184C41.948 22.016 41.684 21.956 41.276 22.004C40.82 22.076 40.496 22.184 40.304 22.328C40.112 22.472 39.98 22.772 39.908 23.228C39.836 23.636 39.908 23.888 40.124 23.984C40.364 24.08 40.664 24.224 41.024 24.416C41.312 24.56 41.54 24.656 41.708 24.704C41.9 24.728 42.116 24.62 42.356 24.38C42.596 24.14 42.728 23.936 42.752 23.768C42.776 23.576 42.716 23.324 42.572 23.012ZM37.172 22.4C37.028 22.28 36.908 22.208 36.812 22.184C36.74 22.136 36.632 22.16 36.488 22.256C36.344 22.376 36.248 22.484 36.2 22.58C36.152 22.676 36.164 22.82 36.236 23.012C36.308 23.228 36.38 23.384 36.452 23.48C36.524 23.552 36.668 23.588 36.884 23.588C37.1 23.588 37.232 23.54 37.28 23.444C37.328 23.324 37.376 23.168 37.424 22.976C37.472 22.832 37.472 22.724 37.424 22.652C37.4 22.58 37.316 22.496 37.172 22.4ZM33.536 23.3C33.392 23.108 33.296 22.94 33.248 22.796C33.2 22.628 33.056 22.58 32.816 22.652C32.528 22.724 32.324 22.82 32.204 22.94C32.108 23.036 32.048 23.228 32.024 23.516C32 23.828 32.024 24.056 32.096 24.2C32.192 24.32 32.384 24.44 32.672 24.56C32.96 24.68 33.176 24.716 33.32 24.668C33.488 24.62 33.668 24.488 33.86 24.272C34.028 24.08 34.04 23.924 33.896 23.804C33.776 23.684 33.656 23.516 33.536 23.3ZM38.36 24.164C38.216 24.116 38.108 24.116 38.036 24.164C37.988 24.212 37.928 24.296 37.856 24.416C37.712 24.584 37.688 24.74 37.784 24.884C37.88 25.076 38.036 25.148 38.252 25.1C38.444 25.052 38.552 24.92 38.576 24.704C38.576 24.56 38.564 24.452 38.54 24.38C38.54 24.284 38.48 24.212 38.36 24.164ZM53.8088 26.36C52.6088 26.36 51.4688 26.072 50.3888 25.496C49.3328 24.92 48.4688 24.032 47.7968 22.832C47.1488 21.632 46.8248 20.084 46.8248 18.188V8.252C46.8248 7.988 46.9208 7.76 47.1128 7.568C47.3048 7.376 47.5328 7.28 47.7968 7.28H54.6728C54.9368 7.28 55.1648 7.376 55.3568 7.568C55.5488 7.76 55.6448 7.988 55.6448 8.252V17.936C55.6448 19.256 56.2448 19.916 57.4448 19.916C58.6448 19.916 59.2448 19.256 59.2448 17.936V8.252C59.2448 7.988 59.3408 7.76 59.5328 7.568C59.7248 7.376 59.9528 7.28 60.2168 7.28H67.0568C67.3208 7.28 67.5488 7.376 67.7408 7.568C67.9328 7.76 68.0288 7.988 68.0288 8.252V25.028C68.0288 25.292 67.9328 25.52 67.7408 25.712C67.5488 25.904 67.3208 26 67.0568 26H60.7568C60.4928 26 60.2648 25.904 60.0728 25.712C59.8808 25.52 59.7848 25.292 59.7848 25.028V23.84C59.1848 24.728 58.3568 25.376 57.3008 25.784C56.2448 26.168 55.0808 26.36 53.8088 26.36ZM53.7368 8.144C53.4968 8.12 53.3288 8.156 53.2328 8.252C53.1608 8.348 53.0888 8.504 53.0168 8.72C52.9208 8.912 52.8968 9.056 52.9448 9.152C52.9928 9.248 53.0888 9.368 53.2328 9.512C53.4008 9.656 53.5328 9.764 53.6288 9.836C53.7488 9.884 53.9048 9.86 54.0968 9.764C54.3128 9.644 54.4208 9.524 54.4208 9.404C54.4448 9.26 54.4208 9.08 54.3488 8.864C54.3008 8.624 54.2408 8.456 54.1688 8.36C54.1208 8.24 53.9768 8.168 53.7368 8.144ZM61.4048 8.468L61.0448 8.324L60.7568 8.54L60.9368 8.792L61.1888 8.828L61.4048 8.468ZM65.0048 9.692C64.6928 9.332 64.4168 9.164 64.1768 9.188C63.9368 9.188 63.6008 9.272 63.1688 9.44C62.6168 9.632 62.1728 9.788 61.8368 9.908C61.5248 10.004 61.3808 10.328 61.4048 10.88C61.4288 11.504 61.5728 11.912 61.8368 12.104C62.1248 12.296 62.5688 12.476 63.1688 12.644C63.6728 12.788 64.0208 12.764 64.2128 12.572C64.4288 12.38 64.6808 12.056 64.9688 11.6C65.2328 11.216 65.3768 10.904 65.4008 10.664C65.4248 10.4 65.2928 10.076 65.0048 9.692ZM51.5408 10.052C51.2528 9.764 51.0008 9.62 50.7848 9.62C50.5928 9.62 50.3168 9.704 49.9568 9.872C49.5968 10.04 49.3448 10.208 49.2008 10.376C49.0808 10.544 49.0448 10.82 49.0928 11.204C49.1408 11.588 49.2488 11.852 49.4168 11.996C49.5848 12.116 49.8608 12.212 50.2448 12.284C50.5808 12.356 50.8088 12.332 50.9288 12.212C51.0728 12.068 51.2288 11.84 51.3968 11.528C51.5888 11.216 51.7208 10.964 51.7928 10.772C51.8648 10.58 51.7808 10.34 51.5408 10.052ZM60.7928 9.872L60.4328 9.764L60.1448 9.908L60.2528 10.196L60.6488 10.304L60.7928 9.872ZM65.9048 12.932L65.6528 12.824L65.5448 13.112L65.6888 13.4L65.9048 13.148V12.932ZM53.9888 13.508C53.8928 13.34 53.7728 13.268 53.6288 13.292C53.4608 13.34 53.3768 13.472 53.3768 13.688C53.3768 13.808 53.3648 13.916 53.3408 14.012C53.3408 14.084 53.4128 14.144 53.5568 14.192C53.7248 14.264 53.8448 14.3 53.9168 14.3C54.0128 14.276 54.1088 14.192 54.2048 14.048C54.3008 13.952 54.3128 13.868 54.2408 13.796C54.1688 13.724 54.0848 13.628 53.9888 13.508ZM66.3728 14.588C66.3728 14.42 66.3608 14.3 66.3368 14.228C66.3368 14.132 66.2648 14.072 66.1208 14.048C65.9528 14 65.8208 13.988 65.7248 14.012C65.6288 14.012 65.5328 14.084 65.4368 14.228C65.3408 14.372 65.3168 14.492 65.3648 14.588C65.4128 14.66 65.4848 14.768 65.5808 14.912C65.6768 15.032 65.7608 15.116 65.8328 15.164C65.9048 15.188 66.0128 15.176 66.1568 15.128C66.3008 15.08 66.3728 15.02 66.3728 14.948C66.3728 14.852 66.3728 14.732 66.3728 14.588ZM61.2968 14.084C61.1048 13.988 60.9608 14.012 60.8648 14.156C60.7928 14.228 60.7688 14.288 60.7928 14.336C60.8168 14.384 60.8528 14.456 60.9008 14.552C60.9728 14.672 61.0208 14.78 61.0448 14.876C61.0688 14.972 61.1408 15.008 61.2608 14.984C61.4048 14.936 61.4648 14.876 61.4408 14.804C61.4168 14.708 61.4168 14.588 61.4408 14.444C61.4648 14.252 61.4168 14.132 61.2968 14.084ZM49.3448 14.588C49.2488 14.468 49.1528 14.408 49.0568 14.408C48.9848 14.384 48.8648 14.384 48.6968 14.408C48.5048 14.456 48.3968 14.612 48.3728 14.876C48.3488 15.02 48.4448 15.14 48.6608 15.236C48.8288 15.308 48.9608 15.284 49.0568 15.164C49.1768 15.044 49.2728 14.96 49.3448 14.912C49.4168 14.84 49.4168 14.732 49.3448 14.588ZM63.5648 15.704C63.4928 15.584 63.4328 15.5 63.3848 15.452C63.3368 15.38 63.2408 15.368 63.0968 15.416C62.8808 15.488 62.7728 15.656 62.7728 15.92C62.7728 16.112 62.8928 16.244 63.1328 16.316C63.3008 16.364 63.4448 16.304 63.5648 16.136C63.6608 15.992 63.6608 15.848 63.5648 15.704ZM54.7088 15.704L54.3488 15.56L54.0608 15.776L54.2768 16.028L54.6728 16.172L54.7088 15.704ZM51.0368 16.82C51.0128 16.556 50.9168 16.412 50.7488 16.388C50.5808 16.364 50.3648 16.328 50.1008 16.28C49.9088 16.208 49.7528 16.184 49.6328 16.208C49.5368 16.232 49.4288 16.328 49.3088 16.496C49.1888 16.688 49.1168 16.856 49.0928 17C49.0688 17.12 49.1408 17.264 49.3088 17.432C49.4528 17.624 49.5848 17.732 49.7048 17.756C49.8488 17.78 50.0408 17.744 50.2808 17.648C50.5448 17.552 50.7368 17.468 50.8568 17.396C51.0008 17.3 51.0608 17.108 51.0368 16.82ZM66.1928 16.82C66.0248 16.7 65.8808 16.652 65.7608 16.676C65.6648 16.7 65.5328 16.772 65.3648 16.892C65.2208 16.988 65.1368 17.084 65.1128 17.18C65.1128 17.276 65.1368 17.408 65.1848 17.576C65.2328 17.768 65.2808 17.9 65.3288 17.972C65.4008 18.044 65.5208 18.08 65.6888 18.08C65.9768 18.08 66.1808 17.936 66.3008 17.648C66.3728 17.456 66.4088 17.312 66.4088 17.216C66.4328 17.096 66.3608 16.964 66.1928 16.82ZM53.2328 17.972C53.1848 17.852 53.1368 17.756 53.0888 17.684C53.0408 17.612 52.9568 17.588 52.8368 17.612C52.6448 17.636 52.5008 17.66 52.4048 17.684C52.3088 17.708 52.2368 17.816 52.1888 18.008C52.1648 18.2 52.1768 18.344 52.2248 18.44C52.2968 18.512 52.4288 18.596 52.6208 18.692C52.7648 18.764 52.8608 18.764 52.9088 18.692C52.9808 18.62 53.0768 18.536 53.1968 18.44C53.3168 18.32 53.3288 18.164 53.2328 17.972ZM62.8088 18.368L62.4128 18.548L62.5208 18.98L62.9528 19.052L62.9888 18.692L62.8088 18.368ZM50.0288 19.664C49.8848 19.448 49.7048 19.376 49.4888 19.448C49.2248 19.52 49.0928 19.664 49.0928 19.88C49.0928 20.144 49.2128 20.324 49.4528 20.42C49.5728 20.468 49.6568 20.456 49.7048 20.384C49.7528 20.312 49.8128 20.228 49.8848 20.132C49.9568 20.036 50.0168 19.964 50.0648 19.916C50.1128 19.844 50.1008 19.76 50.0288 19.664ZM63.1328 20.708C62.9648 20.348 62.8208 20.06 62.7008 19.844C62.5808 19.628 62.3168 19.544 61.9088 19.592C61.5008 19.64 61.2848 19.796 61.2608 20.06C61.2368 20.3 61.1888 20.624 61.1168 21.032C61.0448 21.392 60.9848 21.68 60.9368 21.896C60.8888 22.112 61.0328 22.316 61.3688 22.508C61.7288 22.7 62.0048 22.76 62.1968 22.688C62.4128 22.616 62.6768 22.436 62.9888 22.148C63.2528 21.908 63.3728 21.692 63.3488 21.5C63.3488 21.308 63.2768 21.044 63.1328 20.708ZM65.3648 19.7C65.1728 19.676 65.0288 19.688 64.9328 19.736C64.8368 19.76 64.7528 19.856 64.6808 20.024C64.6088 20.168 64.5968 20.288 64.6448 20.384C64.7168 20.456 64.8128 20.552 64.9328 20.672C65.0768 20.792 65.1848 20.888 65.2568 20.96C65.3528 21.032 65.4728 21.032 65.6168 20.96C65.8328 20.84 65.9768 20.732 66.0488 20.636C66.1208 20.54 66.1448 20.384 66.1208 20.168C66.0728 19.952 65.9888 19.832 65.8688 19.808C65.7488 19.76 65.5808 19.724 65.3648 19.7ZM53.0528 20.96C52.9328 20.624 52.8488 20.36 52.8008 20.168C52.7768 19.952 52.5848 19.844 52.2248 19.844C51.8888 19.844 51.6968 19.952 51.6488 20.168C51.6008 20.36 51.5288 20.624 51.4328 20.96C51.3608 21.2 51.3488 21.38 51.3968 21.5C51.4688 21.596 51.6008 21.716 51.7928 21.86C51.9848 22.004 52.1408 22.076 52.2608 22.076C52.3808 22.052 52.5368 21.98 52.7288 21.86C52.9208 21.716 53.0408 21.584 53.0888 21.464C53.1368 21.344 53.1248 21.176 53.0528 20.96ZM56.9048 21.464L56.5808 21.248L56.3648 21.572L56.4728 21.968L56.8328 21.788L56.9048 21.464ZM56.2208 22.796C56.1248 22.748 56.0408 22.748 55.9688 22.796C55.9208 22.82 55.8608 22.88 55.7888 22.976C55.6928 23.072 55.6208 23.156 55.5728 23.228C55.5248 23.276 55.5368 23.36 55.6088 23.48C55.6808 23.624 55.7528 23.72 55.8248 23.768C55.8968 23.816 56.0048 23.828 56.1488 23.804C56.2928 23.78 56.3768 23.732 56.4008 23.66C56.4248 23.564 56.4488 23.432 56.4728 23.264C56.4968 23.048 56.4128 22.892 56.2208 22.796ZM58.9568 23.264C58.9088 23.072 58.8128 22.976 58.6688 22.976C58.5488 22.952 58.3808 22.928 58.1648 22.904C57.9488 22.88 57.7688 22.856 57.6248 22.832C57.4808 22.784 57.3608 22.856 57.2648 23.048C57.1688 23.288 57.1448 23.48 57.1928 23.624C57.2408 23.744 57.3488 23.888 57.5168 24.056C57.6848 24.2 57.8168 24.236 57.9128 24.164C58.0088 24.068 58.1528 23.972 58.3448 23.876C58.5368 23.78 58.6928 23.708 58.8128 23.66C58.9328 23.612 58.9808 23.48 58.9568 23.264ZM55.0328 23.876C54.9368 23.756 54.8408 23.708 54.7448 23.732C54.6728 23.756 54.5648 23.792 54.4208 23.84C54.2528 23.888 54.1208 23.936 54.0248 23.984C53.9528 24.008 53.9168 24.104 53.9168 24.272C53.9168 24.44 53.9648 24.548 54.0608 24.596C54.1568 24.62 54.2768 24.644 54.4208 24.668C54.6128 24.74 54.7568 24.788 54.8528 24.812C54.9488 24.836 55.0568 24.776 55.1768 24.632C55.2728 24.488 55.2968 24.368 55.2488 24.272C55.2248 24.152 55.1528 24.02 55.0328 23.876ZM52.6568 24.128C52.5608 23.936 52.3928 23.864 52.1528 23.912C51.9848 23.936 51.8648 23.972 51.7928 24.02C51.7208 24.068 51.6728 24.164 51.6488 24.308C51.6248 24.452 51.6608 24.536 51.7568 24.56C51.8528 24.584 51.9608 24.62 52.0808 24.668C52.1768 24.716 52.2608 24.752 52.3328 24.776C52.4048 24.8 52.4768 24.764 52.5488 24.668C52.7168 24.476 52.7528 24.296 52.6568 24.128ZM62.3048 24.92L62.0528 24.56L61.7648 24.812L61.7288 25.064L62.0168 25.136L62.3048 24.92ZM80.8026 26.36C78.9786 26.36 77.3226 26.048 75.8346 25.424C74.3466 24.776 73.1466 23.84 72.2346 22.616C71.3226 21.392 70.8186 19.892 70.7226 18.116C70.6986 17.732 70.6866 17.252 70.6866 16.676C70.6866 16.1 70.6986 15.608 70.7226 15.2C70.8186 13.424 71.3106 11.924 72.1986 10.7C73.1106 9.452 74.3106 8.516 75.7986 7.892C77.3106 7.244 78.9786 6.92 80.8026 6.92C82.6986 6.92 84.3066 7.196 85.6266 7.748C86.9706 8.276 88.0506 8.936 88.8666 9.728C89.7066 10.496 90.3186 11.264 90.7026 12.032C91.1106 12.8 91.3266 13.424 91.3506 13.904C91.3746 14.168 91.2786 14.396 91.0626 14.588C90.8706 14.78 90.6426 14.876 90.3786 14.876H83.3586C83.0946 14.876 82.8786 14.816 82.7106 14.696C82.5666 14.552 82.4346 14.372 82.3146 14.156C82.1466 13.82 81.9666 13.556 81.7746 13.364C81.6066 13.172 81.3426 13.076 80.9826 13.076C80.4306 13.076 80.0586 13.28 79.8666 13.688C79.6746 14.096 79.5666 14.66 79.5426 15.38C79.5186 16.412 79.5186 17.264 79.5426 17.936C79.5906 18.704 79.6986 19.28 79.8666 19.664C80.0586 20.024 80.4306 20.204 80.9826 20.204C81.4146 20.204 81.7026 20.108 81.8466 19.916C82.0146 19.724 82.1706 19.46 82.3146 19.124C82.5066 18.644 82.8546 18.404 83.3586 18.404H90.3786C90.6426 18.404 90.8706 18.5 91.0626 18.692C91.2786 18.884 91.3746 19.112 91.3506 19.376C91.3266 19.688 91.1946 20.132 90.9546 20.708C90.7386 21.26 90.3786 21.86 89.8746 22.508C89.3946 23.156 88.7466 23.78 87.9306 24.38C87.1146 24.956 86.1186 25.436 84.9426 25.82C83.7666 26.18 82.3866 26.36 80.8026 26.36ZM82.7106 7.784C82.5186 7.64 82.3506 7.604 82.2066 7.676C82.0866 7.724 81.9186 7.82 81.7026 7.964C81.5586 8.084 81.4866 8.204 81.4866 8.324C81.5106 8.42 81.5586 8.564 81.6306 8.756C81.6786 8.924 81.7386 9.044 81.8106 9.116C81.8826 9.188 82.0026 9.224 82.1706 9.224C82.4106 9.224 82.5906 9.212 82.7106 9.188C82.8306 9.164 82.9266 9.044 82.9986 8.828C83.0706 8.564 83.0946 8.36 83.0706 8.216C83.0706 8.072 82.9506 7.928 82.7106 7.784ZM80.2986 8.144C80.1546 7.952 80.0346 7.808 79.9386 7.712C79.8426 7.616 79.6866 7.616 79.4706 7.712C79.2546 7.784 79.1466 7.892 79.1466 8.036C79.1466 8.156 79.1466 8.336 79.1466 8.576C79.1466 8.744 79.1826 8.864 79.2546 8.936C79.3506 8.984 79.4826 9.02 79.6506 9.044C79.8666 9.116 80.0346 9.176 80.1546 9.224C80.2746 9.248 80.3826 9.176 80.4786 9.008C80.5986 8.816 80.6346 8.672 80.5866 8.576C80.5386 8.456 80.4426 8.312 80.2986 8.144ZM75.0786 9.656C74.8866 9.44 74.6706 9.38 74.4306 9.476C74.3106 9.548 74.2506 9.632 74.2506 9.728C74.2506 9.8 74.2626 9.908 74.2866 10.052C74.3106 10.196 74.3226 10.304 74.3226 10.376C74.3466 10.448 74.4306 10.508 74.5746 10.556C74.8626 10.604 75.0666 10.52 75.1866 10.304C75.3066 10.088 75.2706 9.872 75.0786 9.656ZM77.0586 9.62C76.9386 9.524 76.8306 9.5 76.7346 9.548C76.6626 9.572 76.5666 9.632 76.4466 9.728C76.2786 9.848 76.2426 10.016 76.3386 10.232C76.3866 10.376 76.4226 10.484 76.4466 10.556C76.4946 10.604 76.5906 10.628 76.7346 10.628C76.9026 10.628 77.0226 10.616 77.0946 10.592C77.1906 10.544 77.2626 10.436 77.3106 10.268C77.4066 10.004 77.3226 9.788 77.0586 9.62ZM87.5706 10.448C87.4986 10.232 87.4146 10.076 87.3186 9.98C87.2466 9.884 87.0906 9.824 86.8506 9.8C86.6586 9.776 86.5506 9.836 86.5266 9.98C86.5026 10.1 86.4426 10.256 86.3466 10.448C86.2506 10.664 86.2866 10.844 86.4546 10.988C86.5986 11.132 86.7786 11.132 86.9946 10.988C87.1626 10.892 87.3066 10.832 87.4266 10.808C87.5466 10.76 87.5946 10.64 87.5706 10.448ZM79.5786 9.872L79.1106 9.98L79.1466 10.448L79.5426 10.628L79.6866 10.268L79.5786 9.872ZM84.7626 10.664C84.5946 10.64 84.4986 10.676 84.4746 10.772C84.4506 10.868 84.4026 10.988 84.3306 11.132C84.2586 11.276 84.2946 11.408 84.4386 11.528C84.5586 11.648 84.6426 11.756 84.6906 11.852C84.7626 11.924 84.8706 11.924 85.0146 11.852C85.1586 11.756 85.2066 11.66 85.1586 11.564C85.1346 11.468 85.1106 11.348 85.0866 11.204C85.0386 11.036 85.0026 10.916 84.9786 10.844C84.9786 10.748 84.9066 10.688 84.7626 10.664ZM81.5946 11.24L81.1266 11.168L81.1626 11.636L81.5226 11.96L81.7746 11.528L81.5946 11.24ZM73.1706 11.204C73.0506 11.204 72.9666 11.24 72.9186 11.312C72.8946 11.36 72.8586 11.444 72.8106 11.564C72.7626 11.684 72.7266 11.78 72.7026 11.852C72.6786 11.924 72.7146 12.008 72.8106 12.104C72.9306 12.2 73.0266 12.26 73.0986 12.284C73.1946 12.308 73.3026 12.284 73.4226 12.212C73.5906 12.116 73.6986 12.032 73.7466 11.96C73.7946 11.864 73.7946 11.732 73.7466 11.564C73.7226 11.396 73.6626 11.3 73.5666 11.276C73.4706 11.252 73.3386 11.228 73.1706 11.204ZM76.0146 14.588C75.8946 14.06 75.8226 13.628 75.7986 13.292C75.7746 12.956 75.4866 12.752 74.9346 12.68C74.3346 12.632 73.9146 12.716 73.6746 12.932C73.4346 13.148 73.1946 13.532 72.9546 14.084C72.7146 14.612 72.6306 15.02 72.7026 15.308C72.7746 15.596 73.0266 15.92 73.4586 16.28C73.8186 16.64 74.1306 16.784 74.3946 16.712C74.6826 16.64 75.0546 16.472 75.5106 16.208C75.8706 15.992 76.0626 15.776 76.0866 15.56C76.1346 15.344 76.1106 15.02 76.0146 14.588ZM83.5386 13.364L83.2506 13.22L82.9266 13.256L82.9986 13.616L83.3586 13.724L83.5386 13.364ZM87.6786 13.436H87.3546L87.1386 13.796L87.5346 13.94L87.8946 13.76L87.6786 13.436ZM85.3026 13.508L84.9066 13.436L84.9426 13.796L85.1586 13.976L85.5906 13.832L85.3026 13.508ZM77.0946 18.512C76.9986 18.392 76.9146 18.344 76.8426 18.368C76.7706 18.392 76.6626 18.416 76.5186 18.44C76.3986 18.488 76.2906 18.524 76.1946 18.548C76.1226 18.572 76.0866 18.644 76.0866 18.764C76.0866 18.908 76.1226 18.992 76.1946 19.016C76.2666 19.04 76.3626 19.076 76.4826 19.124C76.6266 19.172 76.7346 19.22 76.8066 19.268C76.8786 19.292 76.9626 19.244 77.0586 19.124C77.2266 18.932 77.2386 18.728 77.0946 18.512ZM73.5666 18.404H73.3146L73.1706 18.692L73.4586 18.836L73.7826 18.656L73.5666 18.404ZM72.5946 19.16C72.5466 19.04 72.5106 18.944 72.4866 18.872C72.4626 18.8 72.3906 18.764 72.2706 18.764C72.0546 18.764 71.9106 18.884 71.8386 19.124C71.7906 19.244 71.7906 19.328 71.8386 19.376C71.8866 19.424 71.9586 19.484 72.0546 19.556C72.2466 19.7 72.4026 19.724 72.5226 19.628C72.6186 19.556 72.6546 19.496 72.6306 19.448C72.6306 19.376 72.6186 19.28 72.5946 19.16ZM84.0066 19.808C83.8386 19.688 83.7066 19.664 83.6106 19.736C83.5386 19.808 83.4186 19.904 83.2506 20.024C83.1066 20.12 82.9986 20.204 82.9266 20.276C82.8546 20.324 82.8426 20.444 82.8906 20.636C82.9386 20.804 83.0106 20.9 83.1066 20.924C83.2026 20.924 83.3466 20.924 83.5386 20.924C83.7786 20.924 83.9346 20.816 84.0066 20.6C84.0786 20.408 84.1266 20.264 84.1506 20.168C84.1986 20.048 84.1506 19.928 84.0066 19.808ZM79.3626 20.312C79.1706 20 78.9666 19.88 78.7506 19.952C78.5586 20 78.2826 20.072 77.9226 20.168C77.5386 20.24 77.2266 20.288 76.9866 20.312C76.7466 20.336 76.6026 20.54 76.5546 20.924C76.5066 21.404 76.5426 21.752 76.6626 21.968C76.7826 22.184 77.0586 22.376 77.4906 22.544C77.9226 22.736 78.2586 22.796 78.4986 22.724C78.7386 22.652 79.0026 22.436 79.2906 22.076C79.5786 21.74 79.7226 21.464 79.7226 21.248C79.7226 21.008 79.6026 20.696 79.3626 20.312ZM87.4626 20.168C87.2226 19.976 86.9946 19.94 86.7786 20.06C86.4906 20.228 86.3706 20.456 86.4186 20.744C86.4666 20.984 86.5026 21.176 86.5266 21.32C86.5746 21.44 86.7186 21.512 86.9586 21.536C87.1986 21.56 87.3546 21.512 87.4266 21.392C87.4986 21.272 87.5826 21.104 87.6786 20.888C87.7746 20.72 87.7866 20.588 87.7146 20.492C87.6666 20.396 87.5826 20.288 87.4626 20.168ZM74.6826 20.384L74.4666 20.168L74.2866 20.42L74.3946 20.744L74.7906 20.672L74.6826 20.384ZM85.4826 21.284C85.3866 21.212 85.3026 21.188 85.2306 21.212C85.1586 21.236 85.0626 21.284 84.9426 21.356C84.7986 21.428 84.7506 21.56 84.7986 21.752C84.8226 21.872 84.8466 21.968 84.8706 22.04C84.9186 22.112 85.0026 22.148 85.1226 22.148C85.3386 22.172 85.4946 22.076 85.5906 21.86C85.6866 21.62 85.6506 21.428 85.4826 21.284ZM74.2866 21.968C74.1906 21.824 74.0826 21.752 73.9626 21.752C73.8666 21.728 73.7346 21.752 73.5666 21.824C73.4226 21.872 73.3266 21.932 73.2786 22.004C73.2546 22.076 73.2426 22.196 73.2426 22.364C73.2426 22.58 73.3626 22.724 73.6026 22.796C73.7226 22.844 73.8066 22.844 73.8546 22.796C73.9026 22.748 73.9626 22.676 74.0346 22.58C74.1306 22.436 74.2146 22.328 74.2866 22.256C74.3826 22.184 74.3826 22.088 74.2866 21.968ZM76.5186 22.58L76.0866 22.436L75.8346 22.796L76.0866 23.12L76.4106 22.976L76.5186 22.58ZM82.7826 23.408L82.4226 23.264L82.1346 23.66L82.5666 23.912L82.9266 23.732L82.7826 23.408ZM84.6906 23.696C84.4746 23.552 84.2706 23.552 84.0786 23.696C83.9346 23.816 83.8386 23.912 83.7906 23.984C83.7666 24.056 83.7786 24.176 83.8266 24.344C83.8986 24.512 83.9706 24.632 84.0426 24.704C84.1146 24.776 84.2466 24.812 84.4386 24.812C84.6066 24.812 84.7146 24.764 84.7626 24.668C84.8106 24.572 84.8586 24.44 84.9066 24.272C84.9786 24.056 84.9066 23.864 84.6906 23.696ZM79.8666 24.236C79.7706 24.044 79.6866 23.9 79.6146 23.804C79.5426 23.708 79.3986 23.672 79.1826 23.696C78.9906 23.72 78.8946 23.792 78.8946 23.912C78.8946 24.032 78.8706 24.188 78.8226 24.38C78.7986 24.548 78.7626 24.68 78.7146 24.776C78.6906 24.872 78.7506 24.968 78.8946 25.064C79.0626 25.16 79.1826 25.196 79.2546 25.172C79.3506 25.124 79.4706 25.04 79.6146 24.92C79.7586 24.8 79.8546 24.704 79.9026 24.632C79.9506 24.536 79.9386 24.404 79.8666 24.236ZM83.3586 24.92L83.0706 24.74L82.8546 24.848L82.8186 25.172L83.1426 25.136L83.3586 24.92ZM99.6331 26.36C98.2651 26.36 97.0531 26.108 95.9971 25.604C94.9411 25.1 94.1131 24.416 93.5131 23.552C92.9371 22.688 92.6491 21.716 92.6491 20.636C92.6491 18.884 93.3571 17.516 94.7731 16.532C96.2131 15.524 98.1331 14.816 100.533 14.408L104.349 13.76C104.349 13.136 104.289 12.68 104.169 12.392C104.073 12.104 103.773 11.96 103.269 11.96C102.933 11.96 102.657 12.032 102.441 12.176C102.249 12.296 102.033 12.476 101.793 12.716C101.529 12.98 101.193 13.112 100.785 13.112H94.6651C94.4251 13.112 94.2211 13.04 94.0531 12.896C93.9091 12.752 93.8491 12.56 93.8731 12.32C93.8971 11.864 94.0891 11.336 94.4491 10.736C94.8091 10.112 95.3611 9.512 96.1051 8.936C96.8731 8.36 97.8451 7.88 99.0211 7.496C100.221 7.112 101.661 6.92 103.341 6.92C106.605 6.92 109.029 7.604 110.613 8.972C112.197 10.316 112.989 12.224 112.989 14.696V25.028C112.989 25.292 112.893 25.52 112.701 25.712C112.509 25.904 112.281 26 112.017 26H105.717C105.453 26 105.225 25.904 105.033 25.712C104.841 25.52 104.745 25.292 104.745 25.028V24.02C104.217 24.74 103.509 25.316 102.621 25.748C101.757 26.156 100.761 26.36 99.6331 26.36ZM102.585 7.856H102.225L102.045 8.072L102.189 8.396L102.549 8.252L102.585 7.856ZM101.073 8.54C100.857 8.468 100.677 8.42 100.533 8.396C100.413 8.348 100.293 8.408 100.173 8.576C100.029 8.792 99.9691 8.96 99.9931 9.08C100.041 9.2 100.137 9.356 100.281 9.548C100.401 9.716 100.509 9.8 100.605 9.8C100.725 9.776 100.881 9.728 101.073 9.656C101.337 9.584 101.469 9.404 101.469 9.116C101.469 8.804 101.337 8.612 101.073 8.54ZM107.121 8.828C107.025 8.612 106.845 8.516 106.581 8.54C106.317 8.564 106.161 8.696 106.113 8.936C106.089 9.104 106.077 9.236 106.077 9.332C106.077 9.428 106.149 9.524 106.293 9.62C106.461 9.692 106.581 9.716 106.653 9.692C106.749 9.668 106.869 9.596 107.013 9.476C107.205 9.308 107.241 9.092 107.121 8.828ZM104.961 9.692C104.673 9.692 104.481 9.836 104.385 10.124C104.337 10.268 104.337 10.376 104.385 10.448C104.433 10.496 104.517 10.568 104.637 10.664C104.805 10.808 104.985 10.82 105.177 10.7C105.321 10.604 105.369 10.436 105.321 10.196C105.273 10.052 105.237 9.932 105.213 9.836C105.189 9.74 105.105 9.692 104.961 9.692ZM97.2931 9.836C97.1491 9.74 97.0291 9.716 96.9331 9.764C96.8611 9.812 96.7531 9.896 96.6091 10.016C96.4891 10.136 96.3931 10.232 96.3211 10.304C96.2731 10.376 96.2731 10.496 96.3211 10.664C96.3931 10.832 96.4651 10.952 96.5371 11.024C96.6331 11.096 96.7771 11.12 96.9691 11.096C97.1611 11.072 97.2931 11.024 97.3651 10.952C97.4371 10.88 97.4851 10.748 97.5091 10.556C97.5571 10.364 97.5691 10.22 97.5451 10.124C97.5451 10.028 97.4611 9.932 97.2931 9.836ZM109.713 11.096L109.389 11.204L109.101 11.42L109.425 11.528L109.749 11.492L109.713 11.096ZM108.201 11.78C108.057 11.66 107.937 11.576 107.841 11.528C107.769 11.456 107.649 11.468 107.481 11.564C107.337 11.66 107.277 11.768 107.301 11.888C107.349 11.984 107.397 12.116 107.445 12.284C107.493 12.452 107.529 12.596 107.553 12.716C107.577 12.836 107.673 12.896 107.841 12.896C108.057 12.896 108.213 12.872 108.309 12.824C108.405 12.776 108.501 12.656 108.597 12.464C108.645 12.272 108.621 12.14 108.525 12.068C108.453 11.996 108.345 11.9 108.201 11.78ZM98.2291 11.852L97.8331 11.528L97.4731 11.816L97.5811 12.284L97.9771 12.176L98.2291 11.852ZM106.041 12.572L105.717 12.14L105.393 12.536L105.429 12.896L105.825 13.004L106.041 12.572ZM111.405 13.796C111.261 13.652 111.141 13.556 111.045 13.508C110.949 13.46 110.817 13.484 110.649 13.58C110.457 13.676 110.337 13.784 110.289 13.904C110.265 14 110.265 14.144 110.289 14.336C110.337 14.528 110.397 14.648 110.469 14.696C110.565 14.72 110.709 14.744 110.901 14.768C111.069 14.792 111.189 14.792 111.261 14.768C111.357 14.744 111.441 14.648 111.513 14.48C111.657 14.216 111.621 13.988 111.405 13.796ZM107.553 15.02L107.301 14.768L106.977 15.092L107.229 15.488L107.625 15.344L107.553 15.02ZM100.749 15.452C100.581 15.26 100.365 15.212 100.101 15.308C99.9331 15.356 99.8131 15.416 99.7411 15.488C99.6931 15.536 99.6691 15.644 99.6691 15.812C99.6691 15.98 99.7051 16.088 99.7771 16.136C99.8491 16.184 99.9691 16.232 100.137 16.28C100.305 16.352 100.437 16.4 100.533 16.424C100.653 16.448 100.761 16.376 100.857 16.208C100.977 16.064 101.013 15.944 100.965 15.848C100.941 15.752 100.869 15.62 100.749 15.452ZM106.221 15.488L105.897 15.524L105.717 15.74L105.933 16.028L106.221 15.812V15.488ZM98.0851 15.92C97.8931 15.872 97.7491 15.884 97.6531 15.956C97.5811 16.004 97.4971 16.112 97.4011 16.28C97.2811 16.424 97.1971 16.556 97.1491 16.676C97.1251 16.772 97.1731 16.892 97.2931 17.036C97.4131 17.18 97.5211 17.252 97.6171 17.252C97.7131 17.228 97.8571 17.18 98.0491 17.108C98.3131 17.012 98.4451 16.844 98.4451 16.604C98.4451 16.412 98.4331 16.268 98.4091 16.172C98.3851 16.052 98.2771 15.968 98.0851 15.92ZM111.045 17.396C110.901 16.892 110.685 16.604 110.397 16.532C110.133 16.436 109.737 16.376 109.209 16.352C108.681 16.328 108.285 16.364 108.021 16.46C107.757 16.532 107.541 16.808 107.373 17.288C107.157 17.864 107.037 18.332 107.013 18.692C106.989 19.028 107.229 19.376 107.733 19.736C108.189 20.096 108.549 20.168 108.813 19.952C109.077 19.736 109.449 19.46 109.929 19.124C110.361 18.836 110.685 18.596 110.901 18.404C111.141 18.212 111.189 17.876 111.045 17.396ZM95.5291 17.396C95.3611 17.396 95.2411 17.408 95.1691 17.432C95.0971 17.456 95.0251 17.54 94.9531 17.684C94.8811 17.876 94.8211 18.044 94.7731 18.188C94.7251 18.308 94.7851 18.428 94.9531 18.548C95.1451 18.716 95.3011 18.812 95.4211 18.836C95.5651 18.86 95.7451 18.8 95.9611 18.656C96.1771 18.536 96.2851 18.416 96.2851 18.296C96.2851 18.152 96.2491 17.96 96.1771 17.72C96.1531 17.552 96.0811 17.468 95.9611 17.468C95.8651 17.444 95.7211 17.42 95.5291 17.396ZM100.065 18.044C99.8251 17.948 99.6331 17.972 99.4891 18.116C99.3451 18.26 99.3331 18.452 99.4531 18.692C99.5731 18.884 99.7291 18.968 99.9211 18.944C100.089 18.92 100.209 18.896 100.281 18.872C100.353 18.824 100.401 18.716 100.425 18.548C100.449 18.404 100.425 18.308 100.353 18.26C100.305 18.188 100.209 18.116 100.065 18.044ZM102.117 21.032C102.813 21.032 103.377 20.804 103.809 20.348C104.241 19.892 104.457 19.184 104.457 18.224L102.333 18.692C101.709 18.836 101.289 19.028 101.073 19.268C100.857 19.508 100.749 19.76 100.749 20.024C100.749 20.288 100.857 20.528 101.073 20.744C101.313 20.936 101.661 21.032 102.117 21.032ZM95.6011 19.7C95.1931 19.604 94.8811 19.592 94.6651 19.664C94.4491 19.736 94.2331 19.952 94.0171 20.312C93.8251 20.624 93.8251 20.852 94.0171 20.996C94.2331 21.14 94.4611 21.344 94.7011 21.608C94.8691 21.8 95.0131 21.932 95.1331 22.004C95.2771 22.052 95.4691 22.028 95.7091 21.932C96.0691 21.764 96.3571 21.656 96.5731 21.608C96.8131 21.536 96.9211 21.296 96.8971 20.888C96.8491 20.456 96.7291 20.18 96.5371 20.06C96.3451 19.916 96.0331 19.796 95.6011 19.7ZM99.4171 20.528C99.2971 20.36 99.1771 20.3 99.0571 20.348C98.9131 20.372 98.8051 20.408 98.7331 20.456C98.6851 20.48 98.6611 20.564 98.6611 20.708C98.6611 20.828 98.6971 20.9 98.7691 20.924C98.8651 20.924 98.9731 20.948 99.0931 20.996C99.2371 21.044 99.3451 21.008 99.4171 20.888C99.5131 20.768 99.5131 20.648 99.4171 20.528ZM107.841 20.672L107.481 20.42L107.229 20.708L107.301 21.032H107.661L107.841 20.672ZM106.149 21.752C106.077 21.608 105.993 21.536 105.897 21.536C105.801 21.536 105.669 21.548 105.501 21.572C105.285 21.62 105.153 21.752 105.105 21.968C105.081 22.16 105.177 22.316 105.393 22.436C105.537 22.508 105.693 22.472 105.861 22.328C105.981 22.208 106.077 22.124 106.149 22.076C106.221 22.004 106.221 21.896 106.149 21.752ZM110.721 22.148C110.697 21.956 110.577 21.836 110.361 21.788C110.241 21.764 110.145 21.752 110.073 21.752C110.001 21.752 109.929 21.812 109.857 21.932C109.713 22.172 109.725 22.376 109.893 22.544C109.989 22.64 110.073 22.664 110.145 22.616C110.217 22.568 110.313 22.52 110.433 22.472C110.529 22.424 110.601 22.388 110.649 22.364C110.697 22.316 110.721 22.244 110.721 22.148ZM100.713 22.868C100.617 22.604 100.497 22.448 100.353 22.4C100.209 22.328 99.9931 22.292 99.7051 22.292C99.4651 22.292 99.3091 22.352 99.2371 22.472C99.1651 22.592 99.0931 22.772 99.0211 23.012C98.9491 23.3 98.8891 23.528 98.8411 23.696C98.7931 23.84 98.8891 23.996 99.1291 24.164C99.3451 24.308 99.5131 24.32 99.6331 24.2C99.7531 24.056 99.9211 23.9 100.137 23.732C100.353 23.564 100.521 23.444 100.641 23.372C100.785 23.276 100.809 23.108 100.713 22.868ZM108.237 22.58C108.093 22.46 107.961 22.4 107.841 22.4C107.745 22.376 107.625 22.424 107.481 22.544C107.217 22.76 107.145 23.024 107.265 23.336C107.337 23.504 107.421 23.6 107.517 23.624C107.613 23.624 107.757 23.624 107.949 23.624C108.189 23.6 108.345 23.468 108.417 23.228C108.441 23.06 108.453 22.928 108.453 22.832C108.453 22.736 108.381 22.652 108.237 22.58ZM102.225 23.912L101.829 23.624L101.541 23.876L101.433 24.272L101.901 24.236L102.225 23.912ZM97.2571 23.732C97.0651 23.66 96.9331 23.672 96.8611 23.768C96.8131 23.864 96.7291 23.984 96.6091 24.128C96.5131 24.248 96.4411 24.344 96.3931 24.416C96.3451 24.488 96.3571 24.584 96.4291 24.704C96.5491 24.92 96.7531 25.004 97.0411 24.956C97.2331 24.908 97.3771 24.872 97.4731 24.848C97.5691 24.8 97.6291 24.68 97.6531 24.488C97.6771 24.272 97.6651 24.116 97.6171 24.02C97.5691 23.9 97.4491 23.804 97.2571 23.732ZM107.373 24.704L107.157 24.344L106.797 24.704L107.013 25.1L107.337 24.92L107.373 24.704ZM110.541 24.632L110.217 24.74L110.037 24.956L110.289 25.136L110.541 24.956V24.632ZM127.503 26C125.775 26 124.227 25.772 122.859 25.316C121.515 24.836 120.447 24.032 119.655 22.904C118.887 21.776 118.503 20.228 118.503 18.26V13.58H115.659C115.395 13.58 115.167 13.484 114.975 13.292C114.783 13.1 114.687 12.872 114.687 12.608V8.252C114.687 7.988 114.783 7.76 114.975 7.568C115.167 7.376 115.395 7.28 115.659 7.28H118.503V1.412C118.503 1.148 118.599 0.92 118.791 0.727999C118.983 0.535999 119.211 0.439999 119.475 0.439999H125.775C126.039 0.439999 126.267 0.535999 126.459 0.727999C126.651 0.92 126.747 1.148 126.747 1.412V7.28H131.283C131.547 7.28 131.775 7.376 131.967 7.568C132.159 7.76 132.255 7.988 132.255 8.252V12.608C132.255 12.872 132.159 13.1 131.967 13.292C131.775 13.484 131.547 13.58 131.283 13.58H126.747V17.54C126.747 18.092 126.867 18.536 127.107 18.872C127.371 19.184 127.767 19.34 128.295 19.34H131.571C131.835 19.34 132.063 19.436 132.255 19.628C132.447 19.82 132.543 20.048 132.543 20.312V25.028C132.543 25.292 132.447 25.52 132.255 25.712C132.063 25.904 131.835 26 131.571 26H127.503ZM124.371 1.484C124.155 1.34 123.975 1.292 123.831 1.34C123.711 1.388 123.567 1.484 123.399 1.628C123.207 1.796 123.075 1.94 123.003 2.06C122.955 2.18 122.979 2.36 123.075 2.6C123.171 2.84 123.279 2.984 123.399 3.032C123.519 3.08 123.711 3.092 123.975 3.068C124.215 3.044 124.371 2.996 124.443 2.924C124.539 2.828 124.611 2.66 124.659 2.42C124.731 2.18 124.755 2 124.731 1.88C124.707 1.736 124.587 1.604 124.371 1.484ZM122.031 2.816L121.671 2.492L121.239 2.564L121.383 2.96L121.743 3.212L122.031 2.816ZM124.299 3.968L124.191 3.68L123.975 3.86L123.867 4.184L124.227 4.22L124.299 3.968ZM121.347 4.616C121.299 4.424 121.167 4.316 120.951 4.292C120.831 4.268 120.735 4.268 120.663 4.292C120.591 4.292 120.519 4.352 120.447 4.472C120.351 4.688 120.387 4.88 120.555 5.048C120.651 5.144 120.735 5.18 120.807 5.156C120.879 5.108 120.975 5.06 121.095 5.012C121.287 4.892 121.371 4.76 121.347 4.616ZM122.571 6.848C121.995 6.56 121.527 6.344 121.167 6.2C120.831 6.032 120.435 6.188 119.979 6.668C119.523 7.124 119.367 7.532 119.511 7.892C119.679 8.228 119.919 8.684 120.231 9.26C120.519 9.812 120.771 10.208 120.987 10.448C121.203 10.664 121.611 10.724 122.211 10.628C122.811 10.532 123.195 10.34 123.363 10.052C123.531 9.764 123.651 9.32 123.723 8.72C123.819 8.168 123.771 7.784 123.579 7.568C123.411 7.328 123.075 7.088 122.571 6.848ZM117.855 9.188C117.831 9.02 117.771 8.924 117.675 8.9C117.603 8.852 117.483 8.816 117.315 8.792C117.147 8.792 117.015 8.804 116.919 8.828C116.847 8.852 116.775 8.948 116.703 9.116C116.631 9.284 116.595 9.428 116.595 9.548C116.595 9.644 116.667 9.752 116.811 9.872C116.979 10.016 117.111 10.1 117.207 10.124C117.327 10.148 117.483 10.1 117.675 9.98C117.843 9.86 117.927 9.752 117.927 9.656C117.951 9.536 117.927 9.38 117.855 9.188ZM126.747 11.132C126.723 10.868 126.567 10.7 126.279 10.628C126.063 10.58 125.883 10.532 125.739 10.484C125.619 10.412 125.499 10.484 125.379 10.7C125.235 10.916 125.175 11.096 125.199 11.24C125.223 11.384 125.319 11.552 125.487 11.744C125.655 11.936 125.799 12.032 125.919 12.032C126.063 12.032 126.255 11.984 126.495 11.888C126.663 11.816 126.747 11.72 126.747 11.6C126.771 11.48 126.771 11.324 126.747 11.132ZM119.007 10.556C118.911 10.532 118.827 10.52 118.755 10.52C118.683 10.496 118.611 10.532 118.539 10.628C118.395 10.844 118.395 11.036 118.539 11.204C118.635 11.3 118.719 11.348 118.791 11.348C118.863 11.324 118.959 11.288 119.079 11.24C119.223 11.192 119.295 11.06 119.295 10.844C119.295 10.7 119.199 10.604 119.007 10.556ZM128.979 10.988L128.619 11.06L128.727 11.42L129.087 11.492L129.159 11.168L128.979 10.988ZM117.531 12.032L117.171 11.852L117.063 12.248L117.243 12.464L117.603 12.392L117.531 12.032ZM124.083 12.32L123.651 12.176L123.399 12.464L123.615 12.716L123.939 12.68L124.083 12.32ZM121.995 13.112C121.971 12.92 121.911 12.8 121.815 12.752C121.719 12.704 121.587 12.668 121.419 12.644C121.179 12.62 120.987 12.584 120.843 12.536C120.699 12.488 120.567 12.572 120.447 12.788C120.327 13.004 120.303 13.172 120.375 13.292C120.471 13.412 120.603 13.568 120.771 13.76C120.915 13.904 121.035 13.964 121.131 13.94C121.251 13.892 121.395 13.82 121.563 13.724C121.731 13.652 121.851 13.58 121.923 13.508C121.995 13.436 122.019 13.304 121.995 13.112ZM120.843 15.128C120.795 14.936 120.735 14.804 120.663 14.732C120.591 14.66 120.459 14.624 120.267 14.624C119.931 14.624 119.715 14.78 119.619 15.092C119.547 15.284 119.535 15.428 119.583 15.524C119.631 15.62 119.727 15.728 119.871 15.848C120.135 16.016 120.399 16.016 120.663 15.848C120.879 15.656 120.939 15.416 120.843 15.128ZM124.263 15.308C124.119 15.212 123.999 15.188 123.903 15.236C123.807 15.26 123.687 15.32 123.543 15.416C123.399 15.512 123.303 15.608 123.255 15.704C123.231 15.776 123.243 15.884 123.291 16.028C123.363 16.244 123.423 16.412 123.471 16.532C123.519 16.652 123.651 16.712 123.867 16.712C124.107 16.712 124.251 16.664 124.299 16.568C124.371 16.448 124.443 16.28 124.515 16.064C124.587 15.872 124.599 15.728 124.551 15.632C124.503 15.536 124.407 15.428 124.263 15.308ZM124.803 18.044C124.251 17.78 123.831 17.756 123.543 17.972C123.279 18.164 122.943 18.5 122.535 18.98C122.151 19.412 121.899 19.772 121.779 20.06C121.659 20.348 121.743 20.732 122.031 21.212C122.367 21.812 122.679 22.232 122.967 22.472C123.255 22.688 123.723 22.724 124.371 22.58C125.043 22.46 125.451 22.232 125.595 21.896C125.739 21.56 125.847 21.056 125.919 20.384C125.991 19.736 125.967 19.256 125.847 18.944C125.751 18.608 125.403 18.308 124.803 18.044ZM120.159 19.844L119.835 19.88L119.655 20.204L120.159 20.132V19.844ZM130.563 20.888L130.311 20.672L130.059 20.888L130.095 21.248L130.491 21.212L130.563 20.888ZM129.267 21.788C129.171 21.524 129.063 21.356 128.943 21.284C128.847 21.188 128.667 21.152 128.403 21.176C128.139 21.2 127.971 21.272 127.899 21.392C127.827 21.512 127.767 21.692 127.719 21.932C127.647 22.22 127.587 22.46 127.539 22.652C127.491 22.82 127.599 22.976 127.863 23.12C128.127 23.288 128.343 23.336 128.511 23.264C128.679 23.192 128.883 23.048 129.123 22.832C129.315 22.664 129.411 22.508 129.411 22.364C129.411 22.22 129.363 22.028 129.267 21.788ZM126.315 23.624C126.291 23.48 126.243 23.396 126.171 23.372C126.099 23.348 125.979 23.312 125.811 23.264C125.619 23.216 125.475 23.288 125.379 23.48C125.235 23.696 125.235 23.876 125.379 24.02C125.451 24.116 125.523 24.152 125.595 24.128C125.667 24.08 125.763 24.032 125.883 23.984C126.003 23.936 126.111 23.9 126.207 23.876C126.303 23.852 126.339 23.768 126.315 23.624ZM129.591 24.56L129.231 24.668L129.339 25.064L129.663 25.028L129.915 24.776L129.591 24.56ZM141.047 26.36C139.679 26.36 138.467 26.108 137.411 25.604C136.355 25.1 135.527 24.416 134.927 23.552C134.351 22.688 134.063 21.716 134.063 20.636C134.063 18.884 134.771 17.516 136.187 16.532C137.627 15.524 139.547 14.816 141.947 14.408L145.763 13.76C145.763 13.136 145.703 12.68 145.583 12.392C145.487 12.104 145.187 11.96 144.683 11.96C144.347 11.96 144.071 12.032 143.855 12.176C143.663 12.296 143.447 12.476 143.207 12.716C142.943 12.98 142.607 13.112 142.199 13.112H136.079C135.839 13.112 135.635 13.04 135.467 12.896C135.323 12.752 135.263 12.56 135.287 12.32C135.311 11.864 135.503 11.336 135.863 10.736C136.223 10.112 136.775 9.512 137.519 8.936C138.287 8.36 139.259 7.88 140.435 7.496C141.635 7.112 143.075 6.92 144.755 6.92C148.019 6.92 150.443 7.604 152.027 8.972C153.611 10.316 154.403 12.224 154.403 14.696V25.028C154.403 25.292 154.307 25.52 154.115 25.712C153.923 25.904 153.695 26 153.431 26H147.131C146.867 26 146.639 25.904 146.447 25.712C146.255 25.52 146.159 25.292 146.159 25.028V24.02C145.631 24.74 144.923 25.316 144.035 25.748C143.171 26.156 142.175 26.36 141.047 26.36ZM143.999 7.856H143.639L143.459 8.072L143.603 8.396L143.963 8.252L143.999 7.856ZM142.487 8.54C142.271 8.468 142.091 8.42 141.947 8.396C141.827 8.348 141.707 8.408 141.587 8.576C141.443 8.792 141.383 8.96 141.407 9.08C141.455 9.2 141.551 9.356 141.695 9.548C141.815 9.716 141.923 9.8 142.019 9.8C142.139 9.776 142.295 9.728 142.487 9.656C142.751 9.584 142.883 9.404 142.883 9.116C142.883 8.804 142.751 8.612 142.487 8.54ZM148.535 8.828C148.439 8.612 148.259 8.516 147.995 8.54C147.731 8.564 147.575 8.696 147.527 8.936C147.503 9.104 147.491 9.236 147.491 9.332C147.491 9.428 147.563 9.524 147.707 9.62C147.875 9.692 147.995 9.716 148.067 9.692C148.163 9.668 148.283 9.596 148.427 9.476C148.619 9.308 148.655 9.092 148.535 8.828ZM146.375 9.692C146.087 9.692 145.895 9.836 145.799 10.124C145.751 10.268 145.751 10.376 145.799 10.448C145.847 10.496 145.931 10.568 146.051 10.664C146.219 10.808 146.399 10.82 146.591 10.7C146.735 10.604 146.783 10.436 146.735 10.196C146.687 10.052 146.651 9.932 146.627 9.836C146.603 9.74 146.519 9.692 146.375 9.692ZM138.707 9.836C138.563 9.74 138.443 9.716 138.347 9.764C138.275 9.812 138.167 9.896 138.023 10.016C137.903 10.136 137.807 10.232 137.735 10.304C137.687 10.376 137.687 10.496 137.735 10.664C137.807 10.832 137.879 10.952 137.951 11.024C138.047 11.096 138.191 11.12 138.383 11.096C138.575 11.072 138.707 11.024 138.779 10.952C138.851 10.88 138.899 10.748 138.923 10.556C138.971 10.364 138.983 10.22 138.959 10.124C138.959 10.028 138.875 9.932 138.707 9.836ZM151.127 11.096L150.803 11.204L150.515 11.42L150.839 11.528L151.163 11.492L151.127 11.096ZM149.615 11.78C149.471 11.66 149.351 11.576 149.255 11.528C149.183 11.456 149.063 11.468 148.895 11.564C148.751 11.66 148.691 11.768 148.715 11.888C148.763 11.984 148.811 12.116 148.859 12.284C148.907 12.452 148.943 12.596 148.967 12.716C148.991 12.836 149.087 12.896 149.255 12.896C149.471 12.896 149.627 12.872 149.723 12.824C149.819 12.776 149.915 12.656 150.011 12.464C150.059 12.272 150.035 12.14 149.939 12.068C149.867 11.996 149.759 11.9 149.615 11.78ZM139.643 11.852L139.247 11.528L138.887 11.816L138.995 12.284L139.391 12.176L139.643 11.852ZM147.455 12.572L147.131 12.14L146.807 12.536L146.843 12.896L147.239 13.004L147.455 12.572ZM152.819 13.796C152.675 13.652 152.555 13.556 152.459 13.508C152.363 13.46 152.231 13.484 152.063 13.58C151.871 13.676 151.751 13.784 151.703 13.904C151.679 14 151.679 14.144 151.703 14.336C151.751 14.528 151.811 14.648 151.883 14.696C151.979 14.72 152.123 14.744 152.315 14.768C152.483 14.792 152.603 14.792 152.675 14.768C152.771 14.744 152.855 14.648 152.927 14.48C153.071 14.216 153.035 13.988 152.819 13.796ZM148.967 15.02L148.715 14.768L148.391 15.092L148.643 15.488L149.039 15.344L148.967 15.02ZM142.163 15.452C141.995 15.26 141.779 15.212 141.515 15.308C141.347 15.356 141.227 15.416 141.155 15.488C141.107 15.536 141.083 15.644 141.083 15.812C141.083 15.98 141.119 16.088 141.191 16.136C141.263 16.184 141.383 16.232 141.551 16.28C141.719 16.352 141.851 16.4 141.947 16.424C142.067 16.448 142.175 16.376 142.271 16.208C142.391 16.064 142.427 15.944 142.379 15.848C142.355 15.752 142.283 15.62 142.163 15.452ZM147.635 15.488L147.311 15.524L147.131 15.74L147.347 16.028L147.635 15.812V15.488ZM139.499 15.92C139.307 15.872 139.163 15.884 139.067 15.956C138.995 16.004 138.911 16.112 138.815 16.28C138.695 16.424 138.611 16.556 138.563 16.676C138.539 16.772 138.587 16.892 138.707 17.036C138.827 17.18 138.935 17.252 139.031 17.252C139.127 17.228 139.271 17.18 139.463 17.108C139.727 17.012 139.859 16.844 139.859 16.604C139.859 16.412 139.847 16.268 139.823 16.172C139.799 16.052 139.691 15.968 139.499 15.92ZM152.459 17.396C152.315 16.892 152.099 16.604 151.811 16.532C151.547 16.436 151.151 16.376 150.623 16.352C150.095 16.328 149.699 16.364 149.435 16.46C149.171 16.532 148.955 16.808 148.787 17.288C148.571 17.864 148.451 18.332 148.427 18.692C148.403 19.028 148.643 19.376 149.147 19.736C149.603 20.096 149.963 20.168 150.227 19.952C150.491 19.736 150.863 19.46 151.343 19.124C151.775 18.836 152.099 18.596 152.315 18.404C152.555 18.212 152.603 17.876 152.459 17.396ZM136.943 17.396C136.775 17.396 136.655 17.408 136.583 17.432C136.511 17.456 136.439 17.54 136.367 17.684C136.295 17.876 136.235 18.044 136.187 18.188C136.139 18.308 136.199 18.428 136.367 18.548C136.559 18.716 136.715 18.812 136.835 18.836C136.979 18.86 137.159 18.8 137.375 18.656C137.591 18.536 137.699 18.416 137.699 18.296C137.699 18.152 137.663 17.96 137.591 17.72C137.567 17.552 137.495 17.468 137.375 17.468C137.279 17.444 137.135 17.42 136.943 17.396ZM141.479 18.044C141.239 17.948 141.047 17.972 140.903 18.116C140.759 18.26 140.747 18.452 140.867 18.692C140.987 18.884 141.143 18.968 141.335 18.944C141.503 18.92 141.623 18.896 141.695 18.872C141.767 18.824 141.815 18.716 141.839 18.548C141.863 18.404 141.839 18.308 141.767 18.26C141.719 18.188 141.623 18.116 141.479 18.044ZM143.531 21.032C144.227 21.032 144.791 20.804 145.223 20.348C145.655 19.892 145.871 19.184 145.871 18.224L143.747 18.692C143.123 18.836 142.703 19.028 142.487 19.268C142.271 19.508 142.163 19.76 142.163 20.024C142.163 20.288 142.271 20.528 142.487 20.744C142.727 20.936 143.075 21.032 143.531 21.032ZM137.015 19.7C136.607 19.604 136.295 19.592 136.079 19.664C135.863 19.736 135.647 19.952 135.431 20.312C135.239 20.624 135.239 20.852 135.431 20.996C135.647 21.14 135.875 21.344 136.115 21.608C136.283 21.8 136.427 21.932 136.547 22.004C136.691 22.052 136.883 22.028 137.123 21.932C137.483 21.764 137.771 21.656 137.987 21.608C138.227 21.536 138.335 21.296 138.311 20.888C138.263 20.456 138.143 20.18 137.951 20.06C137.759 19.916 137.447 19.796 137.015 19.7ZM140.831 20.528C140.711 20.36 140.591 20.3 140.471 20.348C140.327 20.372 140.219 20.408 140.147 20.456C140.099 20.48 140.075 20.564 140.075 20.708C140.075 20.828 140.111 20.9 140.183 20.924C140.279 20.924 140.387 20.948 140.507 20.996C140.651 21.044 140.759 21.008 140.831 20.888C140.927 20.768 140.927 20.648 140.831 20.528ZM149.255 20.672L148.895 20.42L148.643 20.708L148.715 21.032H149.075L149.255 20.672ZM147.563 21.752C147.491 21.608 147.407 21.536 147.311 21.536C147.215 21.536 147.083 21.548 146.915 21.572C146.699 21.62 146.567 21.752 146.519 21.968C146.495 22.16 146.591 22.316 146.807 22.436C146.951 22.508 147.107 22.472 147.275 22.328C147.395 22.208 147.491 22.124 147.563 22.076C147.635 22.004 147.635 21.896 147.563 21.752ZM152.135 22.148C152.111 21.956 151.991 21.836 151.775 21.788C151.655 21.764 151.559 21.752 151.487 21.752C151.415 21.752 151.343 21.812 151.271 21.932C151.127 22.172 151.139 22.376 151.307 22.544C151.403 22.64 151.487 22.664 151.559 22.616C151.631 22.568 151.727 22.52 151.847 22.472C151.943 22.424 152.015 22.388 152.063 22.364C152.111 22.316 152.135 22.244 152.135 22.148ZM142.127 22.868C142.031 22.604 141.911 22.448 141.767 22.4C141.623 22.328 141.407 22.292 141.119 22.292C140.879 22.292 140.723 22.352 140.651 22.472C140.579 22.592 140.507 22.772 140.435 23.012C140.363 23.3 140.303 23.528 140.255 23.696C140.207 23.84 140.303 23.996 140.543 24.164C140.759 24.308 140.927 24.32 141.047 24.2C141.167 24.056 141.335 23.9 141.551 23.732C141.767 23.564 141.935 23.444 142.055 23.372C142.199 23.276 142.223 23.108 142.127 22.868ZM149.651 22.58C149.507 22.46 149.375 22.4 149.255 22.4C149.159 22.376 149.039 22.424 148.895 22.544C148.631 22.76 148.559 23.024 148.679 23.336C148.751 23.504 148.835 23.6 148.931 23.624C149.027 23.624 149.171 23.624 149.363 23.624C149.603 23.6 149.759 23.468 149.831 23.228C149.855 23.06 149.867 22.928 149.867 22.832C149.867 22.736 149.795 22.652 149.651 22.58ZM143.639 23.912L143.243 23.624L142.955 23.876L142.847 24.272L143.315 24.236L143.639 23.912ZM138.671 23.732C138.479 23.66 138.347 23.672 138.275 23.768C138.227 23.864 138.143 23.984 138.023 24.128C137.927 24.248 137.855 24.344 137.807 24.416C137.759 24.488 137.771 24.584 137.843 24.704C137.963 24.92 138.167 25.004 138.455 24.956C138.647 24.908 138.791 24.872 138.887 24.848C138.983 24.8 139.043 24.68 139.067 24.488C139.091 24.272 139.079 24.116 139.031 24.02C138.983 23.9 138.863 23.804 138.671 23.732ZM148.787 24.704L148.571 24.344L148.211 24.704L148.427 25.1L148.751 24.92L148.787 24.704ZM151.955 24.632L151.631 24.74L151.451 24.956L151.703 25.136L151.955 24.956V24.632Z" fill="white"/>
</svg>
